<svg width="18" height="18" viewBox="0 0 18 18" fill="none" xmlns="http://www.w3.org/2000/svg">
<path fill-rule="evenodd" clip-rule="evenodd" d="M8.46967 3.21967C8.17678 3.51256 8.17678 3.98744 8.46967 4.28033L12.4393 8.25H3.75C3.33579 8.25 3 8.58579 3 9C3 9.41421 3.33579 9.75 3.75 9.75H12.4393L8.46967 13.7197C8.17678 14.0126 8.17678 14.4874 8.46967 14.7803C8.76256 15.0732 9.23744 15.0732 9.53033 14.7803L14.7797 9.53093L14.7803 9.53033M14.7797 8.46907L9.53033 3.21967C9.23744 2.92678 8.76256 2.92678 8.46967 3.21967M14.7803 8.46967C14.782 8.4713 14.7836 8.47294 14.7852 8.47459L14.7803 8.46967Z" fill="black"/>
<mask id="mask0_1216_1800" style="mask-type:luminance" maskUnits="userSpaceOnUse" x="3" y="3" width="12" height="12">
<path fill-rule="evenodd" clip-rule="evenodd" d="M8.46967 3.21967C8.17678 3.51256 8.17678 3.98744 8.46967 4.28033L12.4393 8.25H3.75C3.33579 8.25 3 8.58579 3 9C3 9.41421 3.33579 9.75 3.75 9.75H12.4393L8.46967 13.7197C8.17678 14.0126 8.17678 14.4874 8.46967 14.7803C8.76256 15.0732 9.23744 15.0732 9.53033 14.7803L14.7797 9.53093L14.7803 9.53033M14.7797 8.46907L9.53033 3.21967C9.23744 2.92678 8.76256 2.92678 8.46967 3.21967M14.7803 8.46967C14.782 8.4713 14.7836 8.47294 14.7852 8.47459L14.7803 8.46967Z" fill="white"/>
</mask>
<g mask="url(#mask0_1216_1800)">
<rect width="18" height="18" fill="white"/>
</g>
</svg>
