<svg width="16" height="16" viewBox="0 0 16 16" fill="none" xmlns="http://www.w3.org/2000/svg">
<path fill-rule="evenodd" clip-rule="evenodd" d="M3.33337 1.33333H12.6667C13.8 1.33333 14.6667 2.19999 14.6667 3.33333V10C14.6667 11.1333 13.8 12 12.6667 12H4.93337L2.46671 14.4667C2.33337 14.6 2.20004 14.6667 2.00004 14.6667C1.93337 14.6667 1.80004 14.6667 1.73337 14.6C1.46671 14.5333 1.33337 14.2667 1.33337 14V3.33333C1.33337 2.19999 2.20004 1.33333 3.33337 1.33333ZM12.6667 10.6667C13.0667 10.6667 13.3334 10.4 13.3334 10V3.33333C13.3334 2.93333 13.0667 2.66666 12.6667 2.66666H3.33337C2.93337 2.66666 2.66671 2.93333 2.66671 3.33333V12.4L4.20004 10.8667C4.33337 10.7333 4.46671 10.6667 4.66671 10.6667H12.6667Z" fill="black"/>
<mask id="mask0_534_109433" style="mask-type:luminance" maskUnits="userSpaceOnUse" x="1" y="1" width="14" height="14">
<path fill-rule="evenodd" clip-rule="evenodd" d="M3.33337 1.33333H12.6667C13.8 1.33333 14.6667 2.19999 14.6667 3.33333V10C14.6667 11.1333 13.8 12 12.6667 12H4.93337L2.46671 14.4667C2.33337 14.6 2.20004 14.6667 2.00004 14.6667C1.93337 14.6667 1.80004 14.6667 1.73337 14.6C1.46671 14.5333 1.33337 14.2667 1.33337 14V3.33333C1.33337 2.19999 2.20004 1.33333 3.33337 1.33333ZM12.6667 10.6667C13.0667 10.6667 13.3334 10.4 13.3334 10V3.33333C13.3334 2.93333 13.0667 2.66666 12.6667 2.66666H3.33337C2.93337 2.66666 2.66671 2.93333 2.66671 3.33333V12.4L4.20004 10.8667C4.33337 10.7333 4.46671 10.6667 4.66671 10.6667H12.6667Z" fill="white"/>
</mask>
<g mask="url(#mask0_534_109433)">
<rect width="16" height="16" fill="#FED2FF"/>
</g>
</svg>
