<svg width="12" height="12" viewBox="0 0 12 12" fill="none" xmlns="http://www.w3.org/2000/svg">
<path fill-rule="evenodd" clip-rule="evenodd" d="M10.9851 1.80616C10.9851 1.7591 10.9851 1.71205 10.938 1.66499V1.61793C10.938 1.57088 10.891 1.52382 10.8439 1.47676C10.8204 1.45324 10.7969 1.44147 10.7733 1.42971C10.7498 1.41794 10.7263 1.40618 10.7027 1.38265H10.6557C10.6086 1.38265 10.5616 1.38265 10.5145 1.33559V1.38265C10.4675 1.38265 10.4204 1.38265 10.3734 1.42971L0.962055 4.72366C0.773829 4.77072 0.63266 4.91189 0.63266 5.14717C0.63266 5.3354 0.726773 5.52362 0.914999 5.61773L4.96186 7.40588L6.75 11.4527C6.84412 11.641 6.98529 11.7351 7.17351 11.7351C7.36174 11.7351 7.54996 11.5939 7.59702 11.4057L10.891 1.99438C10.9851 1.94733 10.9851 1.90027 10.9851 1.80616ZM8.72638 2.98252L5.2442 6.4647L2.37376 5.19417L8.72638 2.98252ZM5.90299 7.12347L7.17352 9.99392L9.38517 3.64129L5.90299 7.12347Z" fill="black"/>
<mask id="mask0_1231_13499" style="mask-type:luminance" maskUnits="userSpaceOnUse" x="0" y="1" width="11" height="11">
<path fill-rule="evenodd" clip-rule="evenodd" d="M10.9851 1.80616C10.9851 1.7591 10.9851 1.71205 10.938 1.66499V1.61793C10.938 1.57088 10.891 1.52382 10.8439 1.47676C10.8204 1.45324 10.7969 1.44147 10.7733 1.42971C10.7498 1.41794 10.7263 1.40618 10.7027 1.38265H10.6557C10.6086 1.38265 10.5616 1.38265 10.5145 1.33559V1.38265C10.4675 1.38265 10.4204 1.38265 10.3734 1.42971L0.962055 4.72366C0.773829 4.77072 0.63266 4.91189 0.63266 5.14717C0.63266 5.3354 0.726773 5.52362 0.914999 5.61773L4.96186 7.40588L6.75 11.4527C6.84412 11.641 6.98529 11.7351 7.17351 11.7351C7.36174 11.7351 7.54996 11.5939 7.59702 11.4057L10.891 1.99438C10.9851 1.94733 10.9851 1.90027 10.9851 1.80616ZM8.72638 2.98252L5.2442 6.4647L2.37376 5.19417L8.72638 2.98252ZM5.90299 7.12347L7.17352 9.99392L9.38517 3.64129L5.90299 7.12347Z" fill="white"/>
</mask>
<g mask="url(#mask0_1231_13499)">
<rect x="0.162079" y="0.441574" width="11.2936" height="11.2936" fill="white"/>
</g>
</svg>
